<?xml version="1.0" standalone="no"?>
<!DOCTYPE svg PUBLIC "-//W3C//DTD SVG 20010904//EN"
 "http://www.w3.org/TR/2001/REC-SVG-20010904/DTD/svg10.dtd">
<svg version="1.0" xmlns="http://www.w3.org/2000/svg"
 width="300.000000pt" height="300.000000pt" viewBox="0 0 300.000000 300.000000"
 preserveAspectRatio="xMidYMid meet">
<metadata>
Created by potrace 1.10, written by Peter Selinger 2001-2011
</metadata>
<g transform="translate(0.000000,300.000000) scale(0.100000,-0.100000)"
fill="#ffffff" stroke="none">
<path d="M1374 2745 c6 -21 103 -558 131 -725 9 -52 18 -103 21 -114 5 -15 3
-16 -12 -8 -11 6 -29 6 -48 1 -19 -6 -58 -5 -101 1 -38 5 -185 19 -325 30
-140 11 -272 23 -292 26 l-36 5 19 34 c38 63 100 124 155 151 97 47 220 32
363 -47 l56 -30 -40 35 c-22 20 -69 50 -105 68 -58 30 -74 33 -150 33 -97 0
-149 -19 -234 -84 -66 -51 -190 -117 -272 -146 -84 -29 -88 -35 -28 -35 46 0
702 -54 791 -66 41 -5 41 -5 28 -32 -26 -53 -64 -150 -166 -435 l-104 -287
-42 47 c-67 76 -98 146 -98 224 0 55 6 77 37 140 20 40 61 100 90 132 30 31
51 57 48 57 -10 0 -107 -85 -133 -115 -46 -57 -70 -117 -75 -190 -4 -62 0 -84
37 -191 41 -122 70 -261 72 -338 0 -50 2 -47 60 119 23 66 43 121 44 122 5 8
85 -34 85 -44 0 -13 38 -28 47 -19 3 3 19 -2 35 -10 16 -9 36 -13 44 -10 25
10 15 32 -21 45 -19 7 -35 16 -35 21 0 19 53 69 80 75 16 3 41 16 55 27 14 11
27 19 28 17 1 -2 11 -21 21 -42 29 -55 104 -121 167 -144 32 -12 95 -23 154
-28 118 -8 211 -26 309 -60 l71 -24 -56 52 c-31 29 -176 167 -323 307 -243
232 -265 255 -244 262 13 5 32 19 43 32 15 17 524 265 644 314 11 4 12 -7 6
-63 -11 -102 -31 -157 -75 -208 -64 -73 -178 -115 -314 -118 l-51 -1 35 -10
c60 -17 188 -4 253 26 77 37 123 93 196 239 39 80 86 155 132 212 39 49 61 82
48 73 -13 -8 -87 -45 -164 -80 -77 -36 -247 -116 -379 -177 -131 -62 -240
-110 -242 -108 -4 4 -5 33 -3 101 0 10 -9 28 -20 40 -15 16 -31 89 -75 334
-31 172 -56 318 -56 323 0 29 150 -37 203 -89 62 -59 80 -104 85 -207 2 -59
-1 -112 -11 -155 -9 -36 -14 -66 -12 -68 5 -6 45 108 57 161 5 27 7 73 4 101
-12 93 -45 143 -181 271 -69 65 -147 147 -172 184 -57 81 -67 92 -59 66z m171
-238 c6 -5 -3 -5 -20 -1 -16 4 -41 8 -55 9 -21 1 -26 8 -32 41 -13 73 -9 74
45 16 28 -31 57 -61 62 -65z m-837 -502 c-22 -44 -23 -45 -70 -45 -26 0 -48 3
-48 8 0 5 115 73 137 81 2 1 -7 -19 -19 -44z m1578 -67 c-9 -13 -31 -48 -49
-78 l-32 -55 -5 55 -5 55 45 22 c58 28 66 28 46 1z m-746 -83 c0 -7 8 -23 19
-36 12 -16 20 -48 23 -92 5 -63 4 -69 -16 -77 -11 -4 -43 -29 -71 -54 l-50
-46 -40 39 c-22 22 -54 42 -72 46 -32 6 -63 41 -63 69 0 9 9 35 19 58 11 24
24 57 30 73 l11 30 105 1 c78 1 105 -2 105 -11z m-247 -240 c12 -8 32 -15 44
-15 14 0 40 -19 68 -49 25 -27 140 -138 255 -247 115 -108 207 -200 205 -204
-10 -17 -124 -43 -184 -43 -78 1 -126 19 -182 70 -71 64 -97 112 -96 170 2 61
-20 99 -76 126 -45 22 -85 16 -127 -19 -44 -38 -53 -85 -29 -153 19 -54 18
-104 -1 -116 -7 -4 -51 11 -88 31 -2 1 154 442 175 494 5 11 8 9 10 -7 3 -13
14 -30 26 -38z m63 -229 c28 -28 34 -41 32 -72 -1 -37 -1 -38 -5 -6 -3 21 -10
32 -21 33 -10 0 -12 3 -5 5 31 13 -31 64 -77 64 -30 0 -80 -28 -80 -45 0 -16
15 -21 23 -7 2 4 2 1 1 -5 -2 -8 6 -13 18 -13 12 0 30 -7 39 -16 10 -9 29 -18
41 -19 35 -4 35 -4 43 -22 5 -15 4 -16 -6 -5 -7 6 -23 12 -36 12 -13 0 -31 9
-40 20 -10 11 -29 20 -43 20 -14 0 -34 8 -45 16 -20 15 -19 16 13 45 47 43
102 41 148 -5z m-76 4 c0 -5 -4 -10 -10 -10 -5 0 -10 5 -10 10 0 6 5 10 10 10
6 0 10 -4 10 -10z m30 -50 c0 -5 -4 -10 -10 -10 -5 0 -10 5 -10 10 0 6 5 10
10 10 6 0 10 -4 10 -10z m-73 -40 c27 0 41 -26 25 -42 -8 -8 -15 -8 -25 1 -8
6 -22 9 -31 5 -13 -5 -16 0 -16 27 0 26 3 30 12 21 7 -7 22 -12 35 -12z m63
-50 c0 -5 -4 -10 -10 -10 -5 0 -10 5 -10 10 0 6 5 10 10 10 6 0 10 -4 10 -10z
m48 -2 c-6 -18 -28 -21 -28 -4 0 9 7 16 16 16 9 0 14 -5 12 -12z m-118 -14 c0
-8 -5 -12 -10 -9 -6 4 -8 11 -5 16 9 14 15 11 15 -7z m44 -12 c3 -5 -8 -19
-24 -31 -33 -24 -42 -9 -12 20 19 20 28 23 36 11z m-270 -183 c-10 -26 -19
-47 -20 -46 -2 1 -12 42 -22 90 l-20 87 40 -41 39 -41 -17 -49z m206 101 c0
-5 -4 -10 -10 -10 -5 0 -10 5 -10 10 0 6 5 10 10 10 6 0 10 -4 10 -10z m756
-127 c-1 -2 -36 4 -76 13 -72 17 -72 17 -42 29 16 7 33 18 37 25 5 8 20 0 46
-26 21 -21 37 -39 35 -41z"/>
<path d="M1230 2549 c25 -24 61 -49 80 -56 55 -18 100 -25 100 -16 -1 22 -21
35 -61 40 -47 5 -104 27 -114 43 -3 6 -16 15 -28 21 -12 7 -2 -8 23 -32z"/>
<path d="M1207 2418 c-27 -37 -47 -72 -47 -85 0 -5 8 -13 19 -18 10 -6 34 -18
52 -29 l34 -19 -30 29 c-16 16 -32 28 -34 27 -2 -2 -10 2 -17 8 -11 9 -10 15
2 34 9 13 21 22 27 20 7 -2 28 -6 47 -9 l35 -6 -25 20 c-29 23 -46 25 -53 8
-3 -7 -6 -8 -6 -2 -1 5 6 19 14 30 8 11 15 14 15 7 0 -7 7 -13 16 -13 8 0 12
-5 8 -11 -4 -8 1 -9 17 -4 17 4 20 3 10 -3 -11 -8 -7 -13 18 -26 17 -9 36 -14
41 -11 14 9 18 -8 9 -33 -5 -13 -13 -21 -19 -17 -5 3 -7 0 -5 -8 7 -18 -30
-51 -49 -44 -18 7 29 -64 50 -76 20 -11 18 -27 -8 -54 -26 -27 -12 -30 34 -5
18 9 34 17 36 18 1 0 -4 14 -12 30 -8 16 -17 40 -21 54 -5 21 -2 26 15 27 17
2 19 -1 10 -12 -9 -11 -7 -17 9 -27 12 -7 21 -23 21 -38 0 -24 49 -134 57
-126 2 2 -9 71 -23 155 l-27 151 -29 0 c-15 0 -28 4 -28 9 0 5 -12 14 -27 20
-16 7 -44 20 -63 31 l-35 19 43 1 c36 0 51 -6 85 -35 22 -19 45 -35 51 -35 6
0 -2 12 -19 26 -24 20 -25 23 -7 14 21 -10 23 -9 20 6 -4 23 -36 32 -120 33
-64 1 -68 0 -91 -31z m201 -119 c2 -21 -1 -24 -27 -24 -29 0 -29 0 -14 28 17
33 37 31 41 -4z m-71 -61 c-3 -8 -6 -5 -6 6 -1 11 2 17 5 13 3 -3 4 -12 1 -19z"/>
<path d="M1191 2356 c-9 -11 -3 -15 29 -24 22 -5 40 -8 40 -7 0 2 -13 13 -29
24 -24 17 -31 18 -40 7z"/>
<path d="M1256 2345 c38 -31 61 -36 75 -19 17 21 2 31 -55 37 l-49 5 29 -23z"/>
<path d="M1220 2317 c0 -3 16 -15 35 -27 31 -19 37 -20 50 -6 13 13 13 15 -2
20 -39 10 -83 17 -83 13z"/>
<path d="M2125 2118 c-44 -21 -81 -43 -83 -48 -5 -14 4 -13 48 9 32 15 40 16
44 5 8 -21 28 -17 21 5 -4 14 2 21 25 31 17 7 33 16 35 21 13 20 -17 13 -90
-23z"/>
<path d="M1873 2108 c-40 -10 -85 -68 -53 -68 6 0 10 6 10 14 0 22 49 48 81
44 16 -3 29 -1 29 3 0 12 -34 16 -67 7z"/>
<path d="M1857 2062 c-26 -29 -20 -38 8 -12 15 14 31 21 45 17 11 -3 20 -1 20
4 0 16 -57 9 -73 -9z"/>
<path d="M2145 2051 c-8 -14 27 -81 42 -81 22 0 26 26 8 59 -15 30 -38 40 -50
22z"/>
<path d="M1870 2035 c-13 -16 0 -21 16 -6 5 5 18 11 29 14 16 4 14 5 -6 6 -15
0 -32 -6 -39 -14z"/>
<path d="M1468 2016 c-23 -17 -23 -26 2 -26 13 0 20 7 20 20 0 23 0 23 -22 6z"/>
<path d="M1890 2010 c0 -5 7 -7 15 -4 8 4 15 8 15 10 0 2 -7 4 -15 4 -8 0 -15
-4 -15 -10z"/>
<path d="M1913 1992 c-17 -8 -33 -23 -36 -32 -4 -16 0 -16 44 4 27 11 49 24
49 27 0 15 -27 15 -57 1z"/>
<path d="M1935 1955 c-60 -29 -111 -57 -112 -62 -2 -5 3 -26 12 -46 l15 -36
117 55 c64 30 119 57 122 59 5 6 -30 85 -38 84 -3 0 -55 -25 -116 -54z m115
-7 c-1 -11 -49 -37 -157 -84 -27 -12 -32 -11 -37 1 -4 10 18 26 77 54 87 42
117 49 117 29z"/>
<path d="M2113 1998 c-13 -6 -23 -17 -23 -25 0 -11 6 -11 30 2 17 9 28 20 25
25 -4 6 -7 10 -8 9 -1 0 -12 -5 -24 -11z"/>
<path d="M1678 1909 c-43 -21 -78 -43 -78 -49 0 -13 3 -13 46 8 28 13 38 14
41 5 7 -21 25 -15 18 6 -4 15 3 22 35 35 23 9 38 21 35 26 -8 14 -10 13 -97
-31z"/>
<path d="M576 1896 c-6 -25 -7 -26 -31 -10 -34 22 -65 4 -65 -39 0 -28 4 -34
35 -43 22 -7 38 -8 41 -2 3 5 12 7 20 4 8 -3 14 0 14 7 1 7 11 -1 24 -17 20
-24 28 -27 57 -21 49 10 27 -7 -25 -20 -39 -10 -45 -9 -56 8 -8 14 -15 16 -22
9 -8 -8 -7 -16 2 -27 14 -17 43 -19 70 -5 10 6 32 11 47 11 15 1 43 8 62 17
19 8 46 16 61 17 14 1 35 7 45 14 18 11 17 12 -10 7 -16 -2 -38 -8 -47 -11
-13 -5 -18 -2 -18 9 0 14 -12 20 -32 17 -5 0 -8 4 -8 9 0 5 7 10 15 10 22 0
164 -39 187 -51 11 -6 61 -9 111 -8 l92 3 9 -27 c16 -45 29 -31 23 25 -8 61
-17 74 -45 59 -50 -26 -162 -8 -212 34 -8 7 -67 18 -130 24 -63 6 -136 14
-161 17 -44 5 -47 4 -53 -20z m142 -22 c33 -5 33 -6 17 -24 -14 -16 -15 -23
-6 -34 21 -25 3 -39 -26 -21 -13 9 -31 14 -38 11 -7 -2 -21 4 -30 14 -10 11
-26 22 -37 26 -18 5 -18 7 -4 23 15 17 41 18 124 5z m-163 -23 c19 -8 19 -8
-2 -15 -24 -8 -43 -1 -43 15 0 11 17 11 45 0z m350 -2 c11 -16 3 -17 -40 -3
l-40 12 37 1 c20 1 40 -4 43 -10z"/>
<path d="M1030 1854 l-45 -13 45 6 c25 3 54 9 65 14 20 8 20 8 0 7 -11 0 -40
-6 -65 -14z"/>
<path d="M1175 1850 c3 -5 10 -10 16 -10 5 0 9 5 9 10 0 6 -7 10 -16 10 -8 0
-12 -4 -9 -10z"/>
<path d="M1708 1850 c-15 -9 -15 -13 0 -50 17 -41 27 -46 50 -31 11 7 10 16
-7 50 -12 22 -22 41 -24 41 -1 0 -10 -5 -19 -10z"/>
<path d="M1777 1839 c-26 -15 -10 -30 18 -17 26 12 34 28 13 28 -7 0 -21 -5
-31 -11z"/>
<path d="M1650 1555 c0 -6 9 -20 21 -31 22 -20 54 -74 44 -74 -14 0 -72 34
-97 57 -14 14 -31 22 -37 19 -19 -12 -12 -24 27 -47 57 -35 146 -109 158 -132
9 -16 9 -24 -2 -35 -19 -19 -18 -24 16 -57 23 -22 32 -26 43 -17 11 9 21 4 50
-27 23 -25 32 -41 24 -44 -9 -3 -9 -8 -1 -17 15 -16 51 -4 64 21 14 25 36 24
52 -1 24 -38 77 -13 63 30 -6 19 -25 25 -67 21 -26 -3 -22 16 5 23 50 13 147
-4 147 -27 0 -23 17 -38 33 -31 15 5 14 10 -10 34 -40 41 -77 52 -172 51 -82
-1 -111 8 -111 34 0 6 10 11 23 10 55 -5 77 41 32 71 -19 12 -33 14 -67 7 -56
-12 -101 5 -117 46 -7 16 -21 37 -32 47 -10 9 -19 24 -19 33 -1 19 -70 55 -70
36z m100 -136 c0 -6 -4 -7 -10 -4 -5 3 -10 11 -10 16 0 6 5 7 10 4 6 -3 10
-11 10 -16z m108 -65 c37 11 70 14 82 6 9 -5 3 -10 -19 -15 -74 -16 -50 -105
28 -105 27 0 27 -26 0 -40 -18 -10 -26 -6 -62 34 -30 32 -48 44 -62 40 -11 -2
-26 0 -34 5 -12 8 -12 12 -2 25 10 12 11 23 3 46 l-11 30 30 -16 c17 -8 38
-13 47 -10z"/>
<path d="M1096 1065 c-6 -18 87 -70 110 -61 26 10 14 25 -39 51 -63 29 -63 29
-71 10z"/>
<path d="M1171 745 c1 -40 1 -40 10 -10 5 18 5 33 -1 39 -7 7 -10 -4 -9 -29z"/>
<path d="M1197 758 c-3 -12 -2 -29 3 -37 7 -12 10 -8 11 19 l2 35 7 -35 7 -35
2 33 c0 17 5 32 10 32 6 0 11 -15 13 -32 l3 -33 6 38 c5 36 4 37 -27 37 -24 0
-33 -5 -37 -22z"/>
<path d="M1330 754 c0 -22 -3 -24 -22 -19 -22 7 -22 6 -6 -11 20 -21 32 -13
42 29 4 16 2 27 -4 27 -5 0 -10 -12 -10 -26z"/>
<path d="M1361 756 c-6 -16 -10 -34 -7 -40 3 -7 5 -6 5 2 1 15 31 16 31 0 0
-6 2 -9 6 -6 3 3 -1 21 -9 39 l-15 34 -11 -29z"/>
<path d="M1400 768 c1 -48 36 -78 55 -47 4 6 13 8 21 5 8 -3 14 1 14 9 0 8 -6
13 -12 11 -7 -1 -10 -1 -5 1 10 6 9 33 -2 33 -5 0 -12 -11 -15 -25 -4 -14 -13
-25 -21 -25 -9 0 -15 10 -15 25 0 14 -4 25 -10 25 -5 0 -10 -6 -10 -12z"/>
<path d="M1501 745 c1 -40 1 -40 10 -10 5 18 5 33 -1 39 -7 7 -10 -4 -9 -29z"/>
<path d="M1527 758 c-3 -12 -2 -29 3 -37 7 -12 9 -6 10 22 0 42 -5 48 -13 15z"/>
<path d="M1550 751 c0 -36 13 -46 40 -31 14 8 20 8 20 0 0 -6 5 -8 10 -5 6 4
8 11 5 16 -4 5 1 9 10 9 9 0 14 -4 11 -9 -9 -14 20 -21 33 -8 9 9 14 8 21 -3
13 -21 13 2 -1 37 l-11 28 -14 -30 -13 -30 -1 28 c0 15 -4 27 -10 27 -5 0 -10
-7 -10 -16 0 -8 -5 -12 -10 -9 -6 4 -8 11 -5 16 4 5 2 9 -3 9 -5 0 -14 -11
-20 -25 -14 -31 -42 -33 -42 -4 0 16 5 20 20 16 11 -3 20 -1 20 4 0 5 -11 9
-25 9 -21 0 -25 -5 -25 -29z"/>
<path d="M1721 743 c0 -28 2 -33 8 -19 7 18 8 18 14 3 3 -9 11 -17 17 -17 7 0
8 5 3 13 -4 6 -8 21 -8 32 0 11 -8 21 -17 23 -15 3 -18 -4 -17 -35z m29 23 c0
-3 -4 -8 -10 -11 -5 -3 -10 -1 -10 4 0 6 5 11 10 11 6 0 10 -2 10 -4z"/>
<path d="M1770 768 c0 -5 3 -7 8 -5 4 3 16 -5 27 -16 18 -18 18 -19 2 -14 -12
5 -17 3 -15 -5 7 -19 27 -21 34 -3 4 9 -1 22 -12 31 -17 14 -17 15 -1 10 9 -3
17 -1 17 4 0 5 -13 8 -30 8 -16 -1 -30 -5 -30 -10z"/>
<path d="M545 618 c-25 -14 -35 -28 -35 -50 0 -24 35 -58 60 -58 18 0 20 7 20
60 0 63 -6 70 -45 48z m2 -60 c-3 -8 -6 -5 -6 6 -1 11 2 17 5 13 3 -3 4 -12 1
-19z"/>
<path d="M600 568 c0 -63 8 -70 48 -42 24 17 30 62 10 82 -7 7 -8 12 -2 12 23
0 36 -46 25 -86 -6 -21 -11 -65 -11 -96 l0 -58 56 0 56 0 -5 68 c-3 37 -8 82
-12 100 -5 23 -2 39 9 58 l17 25 -95 -3 -96 -2 0 -58z m142 -52 c4 -93 1 -106
-23 -106 -15 0 -19 7 -19 38 0 141 36 199 42 68z m-105 42 c-3 -8 -6 -5 -6 6
-1 11 2 17 5 13 3 -3 4 -12 1 -19z"/>
<path d="M810 617 c-35 -17 -40 -69 -8 -91 40 -28 48 -21 48 44 0 33 -3 60 -7
60 -5 0 -19 -6 -33 -13z m7 -59 c-3 -7 -5 -2 -5 12 0 14 2 19 5 13 2 -7 2 -19
0 -25z"/>
<path d="M860 505 l0 -125 51 0 c51 0 51 0 47 29 l-4 29 32 -24 c18 -14 48
-28 68 -31 l36 -6 0 62 c0 57 -2 61 -23 61 -12 0 -33 7 -45 16 -27 19 -30 75
-5 95 15 13 15 12 5 -8 -7 -12 -12 -29 -12 -37 0 -22 36 -56 60 -56 18 0 20 7
20 61 l0 61 -42 -6 c-24 -3 -44 -5 -46 -5 -2 -1 -14 -13 -28 -28 l-24 -26 6
31 7 32 -52 0 -51 0 0 -125z m91 57 c14 -15 33 -39 42 -54 9 -14 26 -29 37
-33 13 -4 20 -15 20 -31 0 -29 -13 -30 -57 -3 -27 17 -36 19 -48 9 -8 -7 -15
-19 -15 -26 0 -8 -9 -14 -20 -14 -19 0 -20 7 -20 90 0 79 2 90 18 90 9 0 28
-13 43 -28z m96 6 c-3 -8 -6 -5 -6 6 -1 11 2 17 5 13 3 -3 4 -12 1 -19z"/>
<path d="M1177 617 c-10 -6 -24 -33 -31 -58 -14 -45 -14 -45 14 -57 27 -12 60
-71 60 -107 0 -12 14 -15 61 -15 45 0 60 3 56 13 -2 6 -17 55 -32 107 -16 57
-35 102 -47 113 -24 20 -57 22 -81 4z m93 -100 c12 -40 23 -80 26 -89 4 -14
-1 -18 -21 -18 -21 0 -29 8 -44 43 -10 23 -28 51 -40 61 -26 24 -27 40 -2 65
35 35 57 17 81 -62z"/>
<path d="M1350 571 c0 -57 1 -59 30 -64 20 -4 37 -19 54 -45 31 -50 72 -82
102 -82 22 0 24 4 24 58 0 57 -1 58 -32 67 -23 7 -40 22 -55 50 -22 40 -72 75
-105 75 -15 0 -18 -9 -18 -59z m61 9 c11 -6 31 -29 45 -51 13 -22 36 -45 49
-51 18 -8 25 -19 25 -40 0 -26 -2 -28 -21 -18 -11 6 -32 29 -47 50 -15 22 -39
45 -54 52 -21 10 -28 20 -28 40 0 31 3 33 31 18z"/>
<path d="M1522 620 c-27 -11 -36 -32 -28 -63 4 -19 41 -47 61 -47 3 0 5 27 5
60 0 63 -1 64 -38 50z"/>
<path d="M1660 623 c-90 -6 -109 -59 -40 -113 22 -17 43 -42 46 -55 6 -26 -11
-65 -28 -65 -9 0 -9 3 0 12 16 16 15 63 0 76 -7 5 -23 13 -35 16 -22 7 -23 5
-23 -59 0 -47 3 -64 11 -59 6 4 43 6 81 5 85 -2 118 14 118 59 0 22 -10 37
-45 66 -48 39 -57 70 -30 98 16 16 20 27 8 24 -5 -1 -33 -3 -63 -5z m20 -72
c6 -25 22 -48 45 -65 52 -40 44 -76 -16 -76 -15 0 -19 7 -19 35 0 27 -8 42
-41 74 -45 43 -47 71 -5 71 21 0 27 -7 36 -39z m-63 -123 c-3 -7 -5 -2 -5 12
0 14 2 19 5 13 2 -7 2 -19 0 -25z"/>
<path d="M1750 617 c-17 -8 -26 -22 -28 -43 -3 -32 8 -47 46 -58 21 -7 22 -5
22 53 0 34 -3 61 -7 61 -5 0 -19 -6 -33 -13z m7 -59 c-3 -8 -6 -5 -6 6 -1 11
2 17 5 13 3 -3 4 -12 1 -19z"/>
<path d="M1810 518 c0 -58 -3 -113 -6 -122 -5 -13 3 -16 49 -16 l56 0 4 63 3
62 2 -62 2 -63 55 0 55 0 -1 123 -2 122 -51 -1 -51 -2 -1 -51 c-1 -72 -14 -77
-14 -5 l0 59 -50 0 -50 0 0 -107z m71 30 c7 -74 -4 -132 -23 -136 -16 -3 -18
6 -18 87 0 83 2 91 19 91 15 0 20 -9 22 -42z m109 -48 c0 -82 -2 -90 -19 -90
-15 0 -20 9 -23 45 -2 25 -2 65 0 90 3 36 8 45 23 45 17 0 19 -8 19 -90z"/>
<path d="M400 521 c6 -121 19 -141 90 -141 56 0 88 27 97 84 5 35 5 36 -24 36
-41 0 -67 31 -68 81 l0 39 -50 0 -50 0 5 -99z m74 24 c8 -27 22 -46 43 -60 54
-34 38 -75 -29 -75 -48 0 -58 18 -58 110 0 61 2 71 17 68 9 -2 21 -20 27 -43z"/>
<path d="M2056 598 c-9 -12 -16 -30 -16 -39 0 -40 62 -52 84 -16 9 15 7 22
-11 37 -13 10 -23 23 -23 29 0 18 -18 12 -34 -11z m34 -38 c0 -5 -2 -10 -4
-10 -3 0 -8 5 -11 10 -3 6 -1 10 4 10 6 0 11 -4 11 -10z"/>
<path d="M2143 575 c2 -41 4 -45 28 -45 34 0 53 23 47 55 -5 26 6 32 31 16 22
-14 5 -54 -31 -75 -61 -35 -78 -57 -78 -98 l0 -38 100 0 100 0 0 50 c0 44 -3
50 -21 50 -50 0 -78 -47 -47 -78 8 -8 9 -12 1 -12 -27 0 -43 14 -43 36 0 25
12 38 70 76 40 27 50 66 25 92 -13 12 -36 16 -100 16 l-84 0 2 -45z m167 -8
c0 -14 -20 -37 -32 -37 -4 0 -2 11 4 25 12 27 28 34 28 12z m-104 -103 c-3 -9
-6 -20 -6 -25 0 -5 -7 -9 -15 -9 -18 0 -20 36 -2 43 23 10 29 7 23 -9z"/>
<path d="M2350 565 l0 -55 38 0 c63 0 95 -56 54 -93 -21 -19 -42 -23 -24 -5
28 28 -5 78 -50 78 -15 0 -18 -9 -18 -50 l0 -50 53 0 c76 0 126 17 139 46 17
36 -16 76 -71 88 -39 9 -41 10 -41 47 0 36 2 39 27 39 21 0 24 -3 15 -12 -25
-25 -9 -55 36 -67 l32 -10 0 50 0 49 -95 0 -95 0 0 -55z m50 0 c0 -14 -4 -25
-10 -25 -5 0 -10 11 -10 25 0 14 5 25 10 25 6 0 10 -11 10 -25z m108 -99 c2
-10 0 -22 -6 -28 -6 -6 -11 1 -14 22 -5 32 14 38 20 6z m-108 -26 c0 -5 -4
-10 -10 -10 -5 0 -10 5 -10 10 0 6 5 10 10 10 6 0 10 -4 10 -10z"/>
<path d="M1116 449 c-21 -70 -21 -71 16 -67 23 2 37 11 47 30 14 25 14 29 -5
54 -31 43 -42 40 -58 -17z m31 -31 c-3 -7 -5 -2 -5 12 0 14 2 19 5 13 2 -7 2
-19 0 -25z"/>
<path d="M1350 436 c0 -58 2 -65 18 -59 32 11 52 36 52 63 0 30 -12 44 -47 54
-22 7 -23 5 -23 -58z"/>
</g>
</svg>
